<svg id="visual" viewBox="0 0 540 960" width="540" height="960" xmlns="http://www.w3.org/2000/svg" xmlns:xlink="http://www.w3.org/1999/xlink" version="1.1"><rect x="0" y="0" width="540" height="960" fill="#001220"></rect><defs><linearGradient id="grad1_0" x1="0%" y1="0%" x2="100%" y2="100%"><stop offset="30%" stop-color="#001220" stop-opacity="1"></stop><stop offset="70%" stop-color="#001220" stop-opacity="1"></stop></linearGradient></defs><defs><linearGradient id="grad2_0" x1="0%" y1="0%" x2="100%" y2="100%"><stop offset="30%" stop-color="#001220" stop-opacity="1"></stop><stop offset="70%" stop-color="#001220" stop-opacity="1"></stop></linearGradient></defs><g transform="translate(540, 0)"><path d="M0 486C-68 476.3 -135.9 466.6 -177.2 427.8C-218.4 388.9 -233 320.9 -280.7 280.7C-328.4 240.5 -409.3 228.1 -449 186C-488.7 143.8 -487.4 71.9 -486 0L0 0Z" fill="#FBAE3C"></path></g><g transform="translate(0, 960)"><path d="M0 -486C54 -450.5 108 -414.9 161.5 -389.9C215 -364.8 268 -350.3 319.6 -319.6C371.2 -288.9 421.5 -242 449 -186C476.5 -130 481.3 -65 486 0L0 0Z" fill="#FBAE3C"></path></g></svg>