<svg id="visual" viewBox="0 0 900 600" width="900" height="600" xmlns="http://www.w3.org/2000/svg" xmlns:xlink="http://www.w3.org/1999/xlink" version="1.1"><path d="M0 49L82 49L82 61L164 61L164 121L245 121L245 103L327 103L327 103L409 103L409 109L491 109L491 43L573 43L573 85L655 85L655 109L736 109L736 79L818 79L818 127L900 127L900 103L900 0L900 0L818 0L818 0L736 0L736 0L655 0L655 0L573 0L573 0L491 0L491 0L409 0L409 0L327 0L327 0L245 0L245 0L164 0L164 0L82 0L82 0L0 0Z" fill="#fa7268"></path><path d="M0 163L82 163L82 139L164 139L164 211L245 211L245 175L327 175L327 253L409 253L409 175L491 175L491 181L573 181L573 169L655 169L655 235L736 235L736 229L818 229L818 223L900 223L900 235L900 101L900 125L818 125L818 77L736 77L736 107L655 107L655 83L573 83L573 41L491 41L491 107L409 107L409 101L327 101L327 101L245 101L245 119L164 119L164 59L82 59L82 47L0 47Z" fill="#ea5e66"></path><path d="M0 397L82 397L82 331L164 331L164 355L245 355L245 397L327 397L327 397L409 397L409 379L491 379L491 319L573 319L573 319L655 319L655 451L736 451L736 427L818 427L818 331L900 331L900 463L900 233L900 221L818 221L818 227L736 227L736 233L655 233L655 167L573 167L573 179L491 179L491 173L409 173L409 251L327 251L327 173L245 173L245 209L164 209L164 137L82 137L82 161L0 161Z" fill="#d84a64"></path><path d="M0 505L82 505L82 541L164 541L164 547L245 547L245 517L327 517L327 529L409 529L409 565L491 565L491 517L573 517L573 505L655 505L655 553L736 553L736 547L818 547L818 541L900 541L900 559L900 461L900 329L818 329L818 425L736 425L736 449L655 449L655 317L573 317L573 317L491 317L491 377L409 377L409 395L327 395L327 395L245 395L245 353L164 353L164 329L82 329L82 395L0 395Z" fill="#c53762"></path><path d="M0 601L82 601L82 601L164 601L164 601L245 601L245 601L327 601L327 601L409 601L409 601L491 601L491 601L573 601L573 601L655 601L655 601L736 601L736 601L818 601L818 601L900 601L900 601L900 557L900 539L818 539L818 545L736 545L736 551L655 551L655 503L573 503L573 515L491 515L491 563L409 563L409 527L327 527L327 515L245 515L245 545L164 545L164 539L82 539L82 503L0 503Z" fill="#b0235f"></path></svg>