<?xml version="1.0" ?><!-- Uploaded to: SVG Repo, www.svgrepo.com, Generator: SVG Repo Mixer Tools -->
<svg width="800px" height="800px" viewBox="0 0 32 32" data-name="Layer 1" id="Layer_1" xmlns="http://www.w3.org/2000/svg"><defs><style>.cls-1{fill:none;stroke:#231f20;stroke-linejoin:round;}</style></defs><title/><path class="cls-1" d="M20.5,10.56V27.5a1,1,0,0,1-1,1h-7a1,1,0,0,1-1-1V10.56a3.05,3.05,0,0,1,2-2.87,3.11,3.11,0,0,1,1.06-.19h2.88a3.11,3.11,0,0,1,1.06.19A3.05,3.05,0,0,1,20.5,10.56Z"/><path class="cls-1" d="M18.5,3.5V7.69a3.11,3.11,0,0,0-1.06-.19H14.56a3.11,3.11,0,0,0-1.06.19V3.5Z"/></svg>